# xmcd
#
# Track frame offsets:
#	150
#	22352
#	39517
#	56540
#	73560
#	91890
#	113387
#	132075
#	154140
#	177562
#	192232
#	211670
#	234610
#
# Disc length: 3407 seconds
#
# Revision: 1
# Processed by: cddbd v1.5PL3 Copyright (c) Steve Scherf et al.
# Submitted via: CDex 1.50Beta5
#
DISCID=ad0d4d0d
DTITLE=Mr. Big - Actual Size
DYEAR=1900
DGENRE=
TTITLE0=Lost In America
TTITLE1=Wake Up
TTITLE2=Shine
TTITLE3=Arrow
TTITLE4=Mary Goes 'Round
TTITLE5=Suffocation
TTITLE6=One World Away
TTITLE7=I Don't Want To Be Happy
TTITLE8=Crawl Over Me
TTITLE9=Cheap Little Thrill
TTITLE10=How Did I Give Myself Away
TTITLE11=Nothing Like It In The World
TTITLE12=Deep Dark Secret
EXTD=
EXTT0=
EXTT1=
EXTT2=
EXTT3=
EXTT4=
EXTT5=
EXTT6=
EXTT7=
EXTT8=
EXTT9=
EXTT10=
EXTT11=
EXTT12=
PLAYORDER=
